G04 PROTEUS GERBER X2 FILE*
%TF.GenerationSoftware,Labcenter,Proteus,8.13-SP0-Build31525*%
%TF.CreationDate,2023-08-07T13:29:03+00:00*%
%TF.FileFunction,Copper,L1,Top*%
%TF.FilePolarity,Positive*%
%TF.Part,Single*%
%TF.SameCoordinates,{815acf48-57e3-43f1-9c13-7170ba62ded0}*%
%FSLAX45Y45*%
%MOMM*%
G01*
%AMDIL000*
4,1,8,
-1.270000,0.457200,-0.965200,0.762000,0.965200,0.762000,1.270000,0.457200,1.270000,-0.457200,
0.965200,-0.762000,-0.965200,-0.762000,-1.270000,-0.457200,-1.270000,0.457200,
0*%
%TA.AperFunction,ComponentPad*%
%ADD10DIL000*%
%TA.AperFunction,ComponentPad*%
%ADD11C,3.048000*%
%TA.AperFunction,OtherPad,Unknown*%
%ADD12C,4.000000*%
%TA.AperFunction,ComponentPad*%
%ADD13R,2.032000X2.032000*%
%TA.AperFunction,Profile*%
%ADD14C,0.203200*%
%TD.AperFunction*%
D10*
X+3200000Y+5760000D03*
X+3200000Y+5506000D03*
X+3200000Y+5252000D03*
X+3200000Y+4998000D03*
X+3200000Y+4744000D03*
X+3200000Y+4490000D03*
X+3200000Y+4236000D03*
X+3200000Y+3982000D03*
X+3200000Y+3728000D03*
X+3200000Y+3474000D03*
X+3200000Y+3220000D03*
X+3200000Y+2966000D03*
X+3200000Y+2712000D03*
X+3200000Y+2458000D03*
X+3200000Y+2204000D03*
X+3200000Y+1950000D03*
X+3200000Y+1696000D03*
X+3200000Y+1442000D03*
X+3200000Y+1188000D03*
X+3200000Y+934000D03*
X+4710000Y+5760000D03*
X+4710000Y+5506000D03*
X+4710000Y+5252000D03*
X+4710000Y+4998000D03*
X+4710000Y+4744000D03*
X+4710000Y+4490000D03*
X+4710000Y+4236000D03*
X+4710000Y+3982000D03*
X+4710000Y+3728000D03*
X+4710000Y+3474000D03*
X+4710000Y+3220000D03*
X+4710000Y+2966000D03*
X+4710000Y+2712000D03*
X+4710000Y+2458000D03*
X+4710000Y+2204000D03*
X+4710000Y+1950000D03*
X+4710000Y+1696000D03*
X+4710000Y+1442000D03*
X+4710000Y+1188000D03*
X+4710000Y+934000D03*
X+5630000Y+2960000D03*
X+5630000Y+2706000D03*
X+5630000Y+2452000D03*
X+5630000Y+2198000D03*
D11*
X+1220000Y+1090000D03*
X+1728000Y+1090000D03*
D10*
X+2070000Y+3710000D03*
X+1054000Y+3710000D03*
D11*
X+1260000Y+5720000D03*
X+1260000Y+5212000D03*
X+1260000Y+4704000D03*
D12*
X+580000Y+6500000D03*
X+6110000Y+6490000D03*
X+6110000Y+450000D03*
X+560000Y+430000D03*
D13*
X+1350000Y+2510000D03*
X+1604000Y+2510000D03*
X+5610000Y+5760000D03*
X+5610000Y+5506000D03*
X+5610000Y+5252000D03*
X+5610000Y+4998000D03*
X+5610000Y+4744000D03*
X+5490000Y+3980000D03*
X+5744000Y+3980000D03*
D14*
X+230000Y+120000D02*
X+6470000Y+120000D01*
X+6470000Y+6800000D01*
X+230000Y+6800000D01*
X+230000Y+120000D01*
M02*
