G04 PROTEUS GERBER X2 FILE*
%TF.GenerationSoftware,Labcenter,Proteus,8.13-SP0-Build31525*%
%TF.CreationDate,2023-08-07T13:29:03+00:00*%
%TF.FileFunction,Plated,1,2,PTH*%
%TF.FilePolarity,Positive*%
%TF.Part,Single*%
%TF.SameCoordinates,{815acf48-57e3-43f1-9c13-7170ba62ded0}*%
%FSLAX45Y45*%
%MOMM*%
G01*
%TA.AperFunction,ComponentDrill*%
%ADD30C,0.762000*%
%TA.AperFunction,ComponentDrill*%
%ADD31C,1.524000*%
%TA.AperFunction,OtherDrill,Unknown*%
%ADD32C,3.050000*%
%TA.AperFunction,ComponentDrill*%
%ADD33C,1.016000*%
%TD.AperFunction*%
D30*
X+3200000Y+5760000D03*
X+3200000Y+5506000D03*
X+3200000Y+5252000D03*
X+3200000Y+4998000D03*
X+3200000Y+4744000D03*
X+3200000Y+4490000D03*
X+3200000Y+4236000D03*
X+3200000Y+3982000D03*
X+3200000Y+3728000D03*
X+3200000Y+3474000D03*
X+3200000Y+3220000D03*
X+3200000Y+2966000D03*
X+3200000Y+2712000D03*
X+3200000Y+2458000D03*
X+3200000Y+2204000D03*
X+3200000Y+1950000D03*
X+3200000Y+1696000D03*
X+3200000Y+1442000D03*
X+3200000Y+1188000D03*
X+3200000Y+934000D03*
X+4710000Y+5760000D03*
X+4710000Y+5506000D03*
X+4710000Y+5252000D03*
X+4710000Y+4998000D03*
X+4710000Y+4744000D03*
X+4710000Y+4490000D03*
X+4710000Y+4236000D03*
X+4710000Y+3982000D03*
X+4710000Y+3728000D03*
X+4710000Y+3474000D03*
X+4710000Y+3220000D03*
X+4710000Y+2966000D03*
X+4710000Y+2712000D03*
X+4710000Y+2458000D03*
X+4710000Y+2204000D03*
X+4710000Y+1950000D03*
X+4710000Y+1696000D03*
X+4710000Y+1442000D03*
X+4710000Y+1188000D03*
X+4710000Y+934000D03*
X+5630000Y+2960000D03*
X+5630000Y+2706000D03*
X+5630000Y+2452000D03*
X+5630000Y+2198000D03*
D31*
X+1220000Y+1090000D03*
X+1728000Y+1090000D03*
D30*
X+2070000Y+3710000D03*
X+1054000Y+3710000D03*
D31*
X+1260000Y+5720000D03*
X+1260000Y+5212000D03*
X+1260000Y+4704000D03*
D32*
X+580000Y+6500000D03*
X+6110000Y+6490000D03*
X+6110000Y+450000D03*
X+560000Y+430000D03*
D33*
X+1350000Y+2510000D03*
X+1604000Y+2510000D03*
X+5610000Y+5760000D03*
X+5610000Y+5506000D03*
X+5610000Y+5252000D03*
X+5610000Y+4998000D03*
X+5610000Y+4744000D03*
X+5490000Y+3980000D03*
X+5744000Y+3980000D03*
M02*
