G04 PROTEUS GERBER X2 FILE*
%TF.GenerationSoftware,Labcenter,Proteus,8.13-SP0-Build31525*%
%TF.CreationDate,2023-08-07T13:29:03+00:00*%
%TF.FileFunction,AssemblyDrawing,Top*%
%TF.FilePolarity,Positive*%
%TF.Part,Single*%
%TF.SameCoordinates,{815acf48-57e3-43f1-9c13-7170ba62ded0}*%
%FSLAX45Y45*%
%MOMM*%
G01*
%TA.AperFunction,Material*%
%ADD19C,0.203200*%
%ADD23C,1.016000*%
%ADD24C,0.177800*%
%ADD25C,0.165600*%
%ADD26C,1.219200*%
%ADD27C,0.314280*%
%ADD28C,0.110230*%
%ADD29C,0.178640*%
%TA.AperFunction,Profile*%
%ADD14C,0.203200*%
%TA.AperFunction,Material*%
%ADD72C,0.812800*%
%ADD73C,0.068260*%
%TD.AperFunction*%
D19*
X+3062840Y+3336840D02*
X+3337160Y+3336840D01*
X+3337160Y+5897160D01*
X+3062840Y+5897160D01*
X+3062840Y+3336840D01*
D23*
X+3200000Y+5760000D02*
X+3200000Y+5760000D01*
D24*
X+3217780Y+4363000D02*
X+3235560Y+4363000D01*
X+3253340Y+4383002D01*
X+3253340Y+4463012D01*
X+3235560Y+4483015D01*
X+3146660Y+4483015D01*
X+3182220Y+4563025D02*
X+3146660Y+4603030D01*
X+3253340Y+4603030D01*
D19*
X+3062840Y+796840D02*
X+3337160Y+796840D01*
X+3337160Y+3357160D01*
X+3062840Y+3357160D01*
X+3062840Y+796840D01*
D23*
X+3200000Y+3220000D02*
X+3200000Y+3220000D01*
D24*
X+3217780Y+1742990D02*
X+3235560Y+1742990D01*
X+3253340Y+1762992D01*
X+3253340Y+1843002D01*
X+3235560Y+1863005D01*
X+3146660Y+1863005D01*
X+3182220Y+1943015D02*
X+3146660Y+1983020D01*
X+3253340Y+1983020D01*
X+3182220Y+2103035D02*
X+3146660Y+2143040D01*
X+3253340Y+2143040D01*
D19*
X+4572840Y+3336840D02*
X+4847160Y+3336840D01*
X+4847160Y+5897160D01*
X+4572840Y+5897160D01*
X+4572840Y+3336840D01*
D23*
X+4710000Y+5760000D02*
X+4710000Y+5760000D01*
D24*
X+4727780Y+4363000D02*
X+4745560Y+4363000D01*
X+4763340Y+4383002D01*
X+4763340Y+4463012D01*
X+4745560Y+4483015D01*
X+4656660Y+4483015D01*
X+4674440Y+4543022D02*
X+4656660Y+4563025D01*
X+4656660Y+4623032D01*
X+4674440Y+4643035D01*
X+4692220Y+4643035D01*
X+4710000Y+4623032D01*
X+4710000Y+4563025D01*
X+4727780Y+4543022D01*
X+4763340Y+4543022D01*
X+4763340Y+4643035D01*
D19*
X+4572840Y+796840D02*
X+4847160Y+796840D01*
X+4847160Y+3357160D01*
X+4572840Y+3357160D01*
X+4572840Y+796840D01*
D23*
X+4710000Y+3220000D02*
X+4710000Y+3220000D01*
D24*
X+4727780Y+1742990D02*
X+4745560Y+1742990D01*
X+4763340Y+1762992D01*
X+4763340Y+1843002D01*
X+4745560Y+1863005D01*
X+4656660Y+1863005D01*
X+4674440Y+1923012D02*
X+4656660Y+1943015D01*
X+4656660Y+2003022D01*
X+4674440Y+2023025D01*
X+4692220Y+2023025D01*
X+4710000Y+2003022D01*
X+4710000Y+1943015D01*
X+4727780Y+1923012D01*
X+4763340Y+1923012D01*
X+4763340Y+2023025D01*
X+4674440Y+2083032D02*
X+4656660Y+2103035D01*
X+4656660Y+2163042D01*
X+4674440Y+2183045D01*
X+4692220Y+2183045D01*
X+4710000Y+2163042D01*
X+4710000Y+2103035D01*
X+4727780Y+2083032D01*
X+4763340Y+2083032D01*
X+4763340Y+2183045D01*
D19*
X+5492840Y+2060840D02*
X+5767160Y+2060840D01*
X+5767160Y+3097160D01*
X+5492840Y+3097160D01*
X+5492840Y+2060840D01*
D23*
X+5630000Y+2960000D02*
X+5630000Y+2960000D01*
D25*
X+5580318Y+2112403D02*
X+5663122Y+2112403D01*
X+5679683Y+2131033D01*
X+5679683Y+2205557D01*
X+5663122Y+2224188D01*
X+5580318Y+2224188D01*
X+5663122Y+2261450D02*
X+5679683Y+2280080D01*
X+5679683Y+2354604D01*
X+5663122Y+2373235D01*
X+5646561Y+2373235D01*
X+5630000Y+2354604D01*
X+5630000Y+2280080D01*
X+5613440Y+2261450D01*
X+5596879Y+2261450D01*
X+5580318Y+2280080D01*
X+5580318Y+2354604D01*
X+5596879Y+2373235D01*
X+5679683Y+2410497D02*
X+5613440Y+2410497D01*
X+5580318Y+2447758D01*
X+5580318Y+2485020D01*
X+5613440Y+2522282D01*
X+5679683Y+2522282D01*
X+5646561Y+2410497D02*
X+5646561Y+2522282D01*
X+5679683Y+2559544D02*
X+5580318Y+2559544D01*
X+5580318Y+2652698D01*
X+5596879Y+2671329D01*
X+5613440Y+2671329D01*
X+5630000Y+2652698D01*
X+5630000Y+2559544D01*
X+5630000Y+2652698D02*
X+5646561Y+2671329D01*
X+5679683Y+2671329D01*
X+5580318Y+2708591D02*
X+5580318Y+2820376D01*
X+5580318Y+2764483D02*
X+5679683Y+2764483D01*
D19*
X+955840Y+571840D02*
X+1992160Y+571840D01*
X+1992160Y+1608160D01*
X+955840Y+1608160D01*
X+955840Y+571840D01*
D26*
X+1220000Y+1090000D02*
X+1220000Y+1090000D01*
D27*
X+1542276Y+807147D02*
X+1636560Y+807147D01*
X+1730845Y+913216D01*
X+1636560Y+1019286D01*
X+1542276Y+1019286D01*
X+1636560Y+1090000D02*
X+1636560Y+1302139D01*
X+1573704Y+1196069D02*
X+1699417Y+1196069D01*
D19*
X+965100Y+3621100D02*
X+2158900Y+3621100D01*
X+2158900Y+3798900D01*
X+965100Y+3798900D01*
X+965100Y+3621100D01*
D23*
X+2070000Y+3710000D02*
X+2070000Y+3710000D01*
D28*
X+1392938Y+3676929D02*
X+1392938Y+3743070D01*
X+1454945Y+3743070D01*
X+1467347Y+3732047D01*
X+1467347Y+3721023D01*
X+1454945Y+3710000D01*
X+1392938Y+3710000D01*
X+1454945Y+3710000D02*
X+1467347Y+3698976D01*
X+1467347Y+3676929D01*
X+1516953Y+3721023D02*
X+1541756Y+3743070D01*
X+1541756Y+3676929D01*
D19*
X+741840Y+4439840D02*
X+1778160Y+4439840D01*
X+1778160Y+5984160D01*
X+741840Y+5984160D01*
X+741840Y+4439840D01*
D26*
X+1260000Y+5720000D02*
X+1260000Y+5720000D01*
D29*
X+1295730Y+4567097D02*
X+1313594Y+4587194D01*
X+1313594Y+4667585D01*
X+1295730Y+4687682D01*
X+1277865Y+4687682D01*
X+1260000Y+4667585D01*
X+1260000Y+4587194D01*
X+1242136Y+4567097D01*
X+1224271Y+4567097D01*
X+1206407Y+4587194D01*
X+1206407Y+4667585D01*
X+1224271Y+4687682D01*
X+1313594Y+4848463D02*
X+1313594Y+4727878D01*
X+1206407Y+4727878D01*
X+1206407Y+4848463D01*
X+1260000Y+4727878D02*
X+1260000Y+4808268D01*
X+1313594Y+4888659D02*
X+1206407Y+4888659D01*
X+1313594Y+5009244D01*
X+1206407Y+5009244D01*
X+1295730Y+5049440D02*
X+1313594Y+5069537D01*
X+1313594Y+5149928D01*
X+1295730Y+5170025D01*
X+1277865Y+5170025D01*
X+1260000Y+5149928D01*
X+1260000Y+5069537D01*
X+1242136Y+5049440D01*
X+1224271Y+5049440D01*
X+1206407Y+5069537D01*
X+1206407Y+5149928D01*
X+1224271Y+5170025D01*
X+1242136Y+5210221D02*
X+1206407Y+5250416D01*
X+1206407Y+5290611D01*
X+1242136Y+5330806D01*
X+1277865Y+5330806D01*
X+1313594Y+5290611D01*
X+1313594Y+5250416D01*
X+1277865Y+5210221D01*
X+1242136Y+5210221D01*
X+1313594Y+5371002D02*
X+1206407Y+5371002D01*
X+1206407Y+5471490D01*
X+1224271Y+5491587D01*
X+1242136Y+5491587D01*
X+1260000Y+5471490D01*
X+1260000Y+5371002D01*
X+1260000Y+5471490D02*
X+1277865Y+5491587D01*
X+1313594Y+5491587D01*
D14*
X+230000Y+120000D02*
X+6470000Y+120000D01*
X+6470000Y+6800000D01*
X+230000Y+6800000D01*
X+230000Y+120000D01*
D19*
X+1212840Y+2372840D02*
X+1741160Y+2372840D01*
X+1741160Y+2647160D01*
X+1212840Y+2647160D01*
X+1212840Y+2372840D01*
D72*
X+1350000Y+2510000D02*
X+1350000Y+2510000D01*
D28*
X+1417312Y+2543019D02*
X+1417312Y+2476980D01*
X+1491606Y+2476980D01*
X+1590665Y+2476980D02*
X+1516371Y+2476980D01*
X+1516371Y+2543019D01*
X+1590665Y+2543019D01*
X+1516371Y+2510000D02*
X+1565900Y+2510000D01*
X+1615430Y+2476980D02*
X+1615430Y+2543019D01*
X+1664959Y+2543019D01*
X+1689724Y+2521006D01*
X+1689724Y+2498993D01*
X+1664959Y+2476980D01*
X+1615430Y+2476980D01*
D19*
X+5472840Y+4606840D02*
X+5747160Y+4606840D01*
X+5747160Y+5897160D01*
X+5472840Y+5897160D01*
X+5472840Y+4606840D01*
D72*
X+5610000Y+5760000D02*
X+5610000Y+5760000D01*
D73*
X+5630479Y+4671620D02*
X+5589522Y+4671620D01*
X+5589522Y+4710016D01*
X+5596348Y+4717696D01*
X+5603174Y+4717696D01*
X+5610000Y+4710016D01*
X+5610000Y+4671620D01*
X+5616827Y+4763772D02*
X+5616827Y+4779131D01*
X+5630479Y+4779131D01*
X+5630479Y+4748413D01*
X+5616827Y+4733055D01*
X+5603174Y+4733055D01*
X+5589522Y+4748413D01*
X+5589522Y+4771451D01*
X+5596348Y+4779131D01*
X+5623653Y+4840566D02*
X+5630479Y+4832886D01*
X+5630479Y+4809848D01*
X+5616827Y+4794490D01*
X+5603174Y+4794490D01*
X+5589522Y+4809848D01*
X+5589522Y+4832886D01*
X+5596348Y+4840566D01*
X+5630479Y+4917360D02*
X+5589522Y+4917360D01*
X+5589522Y+4955756D01*
X+5596348Y+4963436D01*
X+5603174Y+4963436D01*
X+5610000Y+4955756D01*
X+5610000Y+4917360D01*
X+5616827Y+5009512D02*
X+5616827Y+5024871D01*
X+5630479Y+5024871D01*
X+5630479Y+4994153D01*
X+5616827Y+4978795D01*
X+5603174Y+4978795D01*
X+5589522Y+4994153D01*
X+5589522Y+5017191D01*
X+5596348Y+5024871D01*
X+5630479Y+5040230D02*
X+5589522Y+5040230D01*
X+5589522Y+5070947D01*
X+5603174Y+5086306D01*
X+5616827Y+5086306D01*
X+5630479Y+5070947D01*
X+5630479Y+5040230D01*
X+5589522Y+5163100D02*
X+5610000Y+5163100D01*
X+5630479Y+5186138D01*
X+5610000Y+5209176D01*
X+5589522Y+5209176D01*
X+5630479Y+5224535D02*
X+5589522Y+5224535D01*
X+5589522Y+5255252D01*
X+5603174Y+5270611D01*
X+5616827Y+5270611D01*
X+5630479Y+5255252D01*
X+5630479Y+5224535D01*
X+5630479Y+5285970D02*
X+5589522Y+5285970D01*
X+5589522Y+5316687D01*
X+5603174Y+5332046D01*
X+5616827Y+5332046D01*
X+5630479Y+5316687D01*
X+5630479Y+5285970D01*
X+5630479Y+5408840D02*
X+5589522Y+5408840D01*
X+5610000Y+5431878D01*
X+5589522Y+5454916D01*
X+5630479Y+5454916D01*
X+5623653Y+5516351D02*
X+5630479Y+5508671D01*
X+5630479Y+5485633D01*
X+5616827Y+5470275D01*
X+5603174Y+5470275D01*
X+5589522Y+5485633D01*
X+5589522Y+5508671D01*
X+5596348Y+5516351D01*
X+5589522Y+5531710D02*
X+5630479Y+5531710D01*
X+5630479Y+5577786D01*
X+5630479Y+5593145D02*
X+5589522Y+5593145D01*
X+5589522Y+5631541D01*
X+5596348Y+5639221D01*
X+5603174Y+5639221D01*
X+5610000Y+5631541D01*
X+5610000Y+5593145D01*
X+5610000Y+5631541D02*
X+5616827Y+5639221D01*
X+5630479Y+5639221D01*
D19*
X+5352840Y+3842840D02*
X+5881160Y+3842840D01*
X+5881160Y+4117160D01*
X+5352840Y+4117160D01*
X+5352840Y+3842840D01*
D72*
X+5490000Y+3980000D02*
X+5490000Y+3980000D01*
D28*
X+5656371Y+3957986D02*
X+5668753Y+3946980D01*
X+5718282Y+3946980D01*
X+5730665Y+3957986D01*
X+5730665Y+3968993D01*
X+5718282Y+3980000D01*
X+5668753Y+3980000D01*
X+5656371Y+3991006D01*
X+5656371Y+4002013D01*
X+5668753Y+4013019D01*
X+5718282Y+4013019D01*
X+5730665Y+4002013D01*
M02*
