G04 PROTEUS GERBER X2 FILE*
%TF.GenerationSoftware,Labcenter,Proteus,8.13-SP0-Build31525*%
%TF.CreationDate,2023-08-07T13:29:03+00:00*%
%TF.FileFunction,Copper,L2,Bot*%
%TF.FilePolarity,Positive*%
%TF.Part,Single*%
%TF.SameCoordinates,{815acf48-57e3-43f1-9c13-7170ba62ded0}*%
%FSLAX45Y45*%
%MOMM*%
G01*
%TA.AperFunction,Conductor*%
%ADD15C,2.032000*%
%ADD16C,2.540000*%
%ADD17C,2.286000*%
%ADD18C,0.254000*%
%AMDIL000*
4,1,8,
-1.270000,0.457200,-0.965200,0.762000,0.965200,0.762000,1.270000,0.457200,1.270000,-0.457200,
0.965200,-0.762000,-0.965200,-0.762000,-1.270000,-0.457200,-1.270000,0.457200,
0*%
%TA.AperFunction,ComponentPad*%
%ADD10DIL000*%
%TA.AperFunction,ComponentPad*%
%ADD11C,3.048000*%
%TA.AperFunction,OtherPad,Unknown*%
%ADD12C,4.000000*%
%TA.AperFunction,ComponentPad*%
%ADD13R,2.032000X2.032000*%
%TA.AperFunction,Profile*%
%ADD14C,0.203200*%
%TD.AperFunction*%
D15*
X+4710000Y+2458000D02*
X+5624000Y+2458000D01*
X+5630000Y+2452000D01*
X+5630000Y+2198000D02*
X+4716000Y+2198000D01*
X+4710000Y+2204000D01*
X+5790000Y+2706000D02*
X+5793856Y+2706000D01*
X+5930000Y+2569856D01*
X+5630000Y+2706000D02*
X+5790000Y+2706000D01*
X+5930000Y+2569856D02*
X+5943570Y+2556286D01*
X+5970000Y+2529856D01*
X+5970000Y+1660000D01*
X+4850000Y+540000D01*
X+2278000Y+540000D01*
X+1728000Y+1090000D01*
D16*
X+1220000Y+1090000D02*
X+810000Y+1500000D01*
X+810000Y+3466000D01*
X+1054000Y+3710000D01*
D17*
X+1350000Y+2510000D02*
X+1350000Y+2776025D01*
X+1382824Y+2808849D01*
X+2070000Y+3496025D01*
X+2070000Y+3710000D01*
X+2239425Y+2510000D02*
X+2692666Y+2963241D01*
X+2717405Y+2963241D01*
D15*
X+3200000Y+2966000D02*
X+2714646Y+2966000D01*
D17*
X+2717405Y+2963241D01*
D18*
X+2705323Y+2975323D02*
X+2714646Y+2966000D01*
D15*
X+1728000Y+1090000D02*
X+1728000Y+2498000D01*
X+1740000Y+2510000D01*
D17*
X+1604000Y+2510000D02*
X+1740000Y+2510000D01*
X+2239425Y+2510000D01*
D15*
X+3200000Y+5760000D02*
X+3200000Y+5785488D01*
X+3598633Y+6184121D01*
X+3672950Y+6184121D01*
X+5185879Y+6184121D01*
X+5305000Y+6065000D01*
X+5610000Y+5760000D02*
X+5305000Y+6065000D01*
X+5610000Y+4998000D02*
X+5382000Y+4998000D01*
X+5340000Y+5040000D01*
X+5340000Y+5490000D01*
X+5068127Y+5761873D01*
X+4711873Y+5761873D01*
X+4710000Y+5760000D01*
X+4710000Y+5506000D02*
X+4944310Y+5506000D01*
X+5100000Y+5350310D01*
X+5100000Y+4912143D01*
X+5268143Y+4744000D01*
X+5610000Y+4744000D01*
D17*
X+1260000Y+4704000D02*
X+1726000Y+4704000D01*
X+2470000Y+3960000D01*
X+2470000Y+3210646D01*
X+2705323Y+2975323D01*
D15*
X+1260000Y+5720000D02*
X+2524500Y+5720000D01*
X+2737723Y+5506777D01*
X+3199223Y+5506777D01*
X+3200000Y+5506000D01*
X+2835000Y+4477644D02*
X+2640000Y+4672644D01*
X+2586322Y+4726322D01*
X+2835000Y+3345000D02*
X+2835000Y+4477644D01*
X+3200000Y+3220000D02*
X+2960000Y+3220000D01*
X+2850000Y+3330000D01*
X+2835000Y+3345000D01*
D18*
X+1090000Y+5120000D02*
X+1176213Y+5206213D01*
X+1309558Y+5206213D01*
X+1460000Y+5206213D01*
D16*
X+1260000Y+5212000D02*
X+1182000Y+5212000D01*
X+1176213Y+5206213D01*
X+1090000Y+5120000D02*
X+813831Y+4843831D01*
X+813831Y+3950169D01*
X+1054000Y+3710000D01*
D15*
X+2586322Y+4726322D02*
X+2106431Y+5206213D01*
X+1460000Y+5206213D01*
X+5490000Y+3980000D02*
X+4692859Y+3980000D01*
X+4686113Y+3973254D01*
X+4710000Y+3982000D01*
D18*
X+5990000Y+3980000D02*
X+5990057Y+3980000D01*
X+6004233Y+3994176D01*
D15*
X+5610000Y+5252000D02*
X+5821328Y+5252000D01*
X+5990000Y+5083328D01*
X+5990000Y+3980000D01*
D18*
X+5630000Y+2706000D02*
X+5626000Y+2710000D01*
X+5622159Y+2710000D01*
D15*
X+5390000Y+2710000D01*
X+5260000Y+2840000D01*
D18*
X+5260000Y+2880000D01*
X+5260000Y+3030001D01*
X+5260000Y+3050000D01*
X+5363090Y+3153090D01*
X+5540000Y+3330000D01*
X+5570000Y+3360000D01*
X+5935000Y+3725000D01*
X+5990000Y+3780000D01*
X+5990000Y+3806564D01*
X+5990000Y+3900000D01*
X+5990000Y+3925133D01*
X+5990000Y+3979748D01*
X+5989748Y+3980000D01*
X+5966824Y+4002924D01*
X+5766924Y+4002924D01*
X+5744000Y+3980000D01*
D15*
X+5560000Y+3330000D02*
X+5260000Y+3030001D01*
X+5260000Y+2880000D01*
X+5260000Y+2840000D01*
X+5622159Y+2710000D02*
X+5630000Y+2706000D01*
X+5744000Y+3980000D02*
X+5989748Y+3980000D01*
X+5990000Y+3980000D01*
X+5990000Y+3979748D01*
X+5935000Y+3725000D02*
X+5570000Y+3360000D01*
X+5540000Y+3330000D01*
D18*
X+5363090Y+3153090D02*
X+5361912Y+3153090D01*
D15*
X+5990000Y+3780000D02*
X+5990000Y+3806564D01*
X+5990000Y+3900000D01*
X+5610000Y+5506000D02*
X+6032881Y+5506000D01*
X+6220000Y+5318881D01*
X+6220000Y+3288317D01*
X+5891683Y+2960000D01*
X+5630000Y+2960000D01*
X+5891683Y+2960000D02*
X+5984407Y+2960000D01*
X+6230000Y+2714407D01*
X+6230000Y+1462238D01*
X+5077762Y+310000D01*
X+1860000Y+310000D01*
X+1220000Y+950000D01*
X+1220000Y+1090000D01*
D10*
X+3200000Y+5760000D03*
X+3200000Y+5506000D03*
X+3200000Y+5252000D03*
X+3200000Y+4998000D03*
X+3200000Y+4744000D03*
X+3200000Y+4490000D03*
X+3200000Y+4236000D03*
X+3200000Y+3982000D03*
X+3200000Y+3728000D03*
X+3200000Y+3474000D03*
X+3200000Y+3220000D03*
X+3200000Y+2966000D03*
X+3200000Y+2712000D03*
X+3200000Y+2458000D03*
X+3200000Y+2204000D03*
X+3200000Y+1950000D03*
X+3200000Y+1696000D03*
X+3200000Y+1442000D03*
X+3200000Y+1188000D03*
X+3200000Y+934000D03*
X+4710000Y+5760000D03*
X+4710000Y+5506000D03*
X+4710000Y+5252000D03*
X+4710000Y+4998000D03*
X+4710000Y+4744000D03*
X+4710000Y+4490000D03*
X+4710000Y+4236000D03*
X+4710000Y+3982000D03*
X+4710000Y+3728000D03*
X+4710000Y+3474000D03*
X+4710000Y+3220000D03*
X+4710000Y+2966000D03*
X+4710000Y+2712000D03*
X+4710000Y+2458000D03*
X+4710000Y+2204000D03*
X+4710000Y+1950000D03*
X+4710000Y+1696000D03*
X+4710000Y+1442000D03*
X+4710000Y+1188000D03*
X+4710000Y+934000D03*
X+5630000Y+2960000D03*
X+5630000Y+2706000D03*
X+5630000Y+2452000D03*
X+5630000Y+2198000D03*
D11*
X+1220000Y+1090000D03*
X+1728000Y+1090000D03*
D10*
X+2070000Y+3710000D03*
X+1054000Y+3710000D03*
D11*
X+1260000Y+5720000D03*
X+1260000Y+5212000D03*
X+1260000Y+4704000D03*
D12*
X+580000Y+6500000D03*
X+6110000Y+6490000D03*
X+6110000Y+450000D03*
X+560000Y+430000D03*
D13*
X+1350000Y+2510000D03*
X+1604000Y+2510000D03*
X+5610000Y+5760000D03*
X+5610000Y+5506000D03*
X+5610000Y+5252000D03*
X+5610000Y+4998000D03*
X+5610000Y+4744000D03*
X+5490000Y+3980000D03*
X+5744000Y+3980000D03*
D14*
X+230000Y+120000D02*
X+6470000Y+120000D01*
X+6470000Y+6800000D01*
X+230000Y+6800000D01*
X+230000Y+120000D01*
M02*
