G04 PROTEUS GERBER X2 FILE*
%TF.GenerationSoftware,Labcenter,Proteus,8.13-SP0-Build31525*%
%TF.CreationDate,2023-08-07T13:29:03+00:00*%
%TF.FileFunction,Legend,Top*%
%TF.FilePolarity,Positive*%
%TF.Part,Single*%
%TF.SameCoordinates,{815acf48-57e3-43f1-9c13-7170ba62ded0}*%
%FSLAX45Y45*%
%MOMM*%
G01*
%TA.AperFunction,Material*%
%ADD19C,0.203200*%
%TA.AperFunction,Profile*%
%ADD14C,0.203200*%
%TD.AperFunction*%
D19*
X+3073000Y+3347000D02*
X+3327000Y+3347000D01*
X+3327000Y+5887000D01*
X+3073000Y+5887000D01*
X+3073000Y+3347000D01*
X+3428600Y+4490000D02*
X+3443840Y+4490000D01*
X+3459080Y+4505875D01*
X+3459080Y+4569375D01*
X+3443840Y+4585250D01*
X+3367640Y+4585250D01*
X+3398120Y+4648750D02*
X+3367640Y+4680500D01*
X+3459080Y+4680500D01*
X+3073000Y+807000D02*
X+3327000Y+807000D01*
X+3327000Y+3347000D01*
X+3073000Y+3347000D01*
X+3073000Y+807000D01*
X+3428600Y+1886500D02*
X+3443840Y+1886500D01*
X+3459080Y+1902375D01*
X+3459080Y+1965875D01*
X+3443840Y+1981750D01*
X+3367640Y+1981750D01*
X+3398120Y+2045250D02*
X+3367640Y+2077000D01*
X+3459080Y+2077000D01*
X+3398120Y+2172250D02*
X+3367640Y+2204000D01*
X+3459080Y+2204000D01*
X+4583000Y+3347000D02*
X+4837000Y+3347000D01*
X+4837000Y+5887000D01*
X+4583000Y+5887000D01*
X+4583000Y+3347000D01*
X+4938600Y+4490000D02*
X+4953840Y+4490000D01*
X+4969080Y+4505875D01*
X+4969080Y+4569375D01*
X+4953840Y+4585250D01*
X+4877640Y+4585250D01*
X+4892880Y+4632875D02*
X+4877640Y+4648750D01*
X+4877640Y+4696375D01*
X+4892880Y+4712250D01*
X+4908120Y+4712250D01*
X+4923360Y+4696375D01*
X+4923360Y+4648750D01*
X+4938600Y+4632875D01*
X+4969080Y+4632875D01*
X+4969080Y+4712250D01*
X+4583000Y+807000D02*
X+4837000Y+807000D01*
X+4837000Y+3347000D01*
X+4583000Y+3347000D01*
X+4583000Y+807000D01*
X+4938600Y+1886500D02*
X+4953840Y+1886500D01*
X+4969080Y+1902375D01*
X+4969080Y+1965875D01*
X+4953840Y+1981750D01*
X+4877640Y+1981750D01*
X+4892880Y+2029375D02*
X+4877640Y+2045250D01*
X+4877640Y+2092875D01*
X+4892880Y+2108750D01*
X+4908120Y+2108750D01*
X+4923360Y+2092875D01*
X+4923360Y+2045250D01*
X+4938600Y+2029375D01*
X+4969080Y+2029375D01*
X+4969080Y+2108750D01*
X+4892880Y+2156375D02*
X+4877640Y+2172250D01*
X+4877640Y+2219875D01*
X+4892880Y+2235750D01*
X+4908120Y+2235750D01*
X+4923360Y+2219875D01*
X+4923360Y+2172250D01*
X+4938600Y+2156375D01*
X+4969080Y+2156375D01*
X+4969080Y+2235750D01*
X+5503000Y+2071000D02*
X+5757000Y+2071000D01*
X+5757000Y+3087000D01*
X+5503000Y+3087000D01*
X+5503000Y+2071000D01*
X+5797640Y+2261500D02*
X+5873840Y+2261500D01*
X+5889080Y+2277375D01*
X+5889080Y+2340875D01*
X+5873840Y+2356750D01*
X+5797640Y+2356750D01*
X+5873840Y+2388500D02*
X+5889080Y+2404375D01*
X+5889080Y+2467875D01*
X+5873840Y+2483750D01*
X+5858600Y+2483750D01*
X+5843360Y+2467875D01*
X+5843360Y+2404375D01*
X+5828120Y+2388500D01*
X+5812880Y+2388500D01*
X+5797640Y+2404375D01*
X+5797640Y+2467875D01*
X+5812880Y+2483750D01*
X+5889080Y+2515500D02*
X+5828120Y+2515500D01*
X+5797640Y+2547250D01*
X+5797640Y+2579000D01*
X+5828120Y+2610750D01*
X+5889080Y+2610750D01*
X+5858600Y+2515500D02*
X+5858600Y+2610750D01*
X+5889080Y+2642500D02*
X+5797640Y+2642500D01*
X+5797640Y+2721875D01*
X+5812880Y+2737750D01*
X+5828120Y+2737750D01*
X+5843360Y+2721875D01*
X+5843360Y+2642500D01*
X+5843360Y+2721875D02*
X+5858600Y+2737750D01*
X+5889080Y+2737750D01*
X+5797640Y+2769500D02*
X+5797640Y+2864750D01*
X+5797640Y+2817125D02*
X+5889080Y+2817125D01*
X+966000Y+1598000D02*
X+966000Y+582000D01*
X+1982000Y+1598000D02*
X+1982000Y+582000D01*
X+966000Y+582000D02*
X+1982000Y+582000D01*
X+966000Y+1598000D02*
X+1982000Y+1598000D01*
X+1347000Y+1730080D02*
X+1347000Y+1684360D01*
X+1394625Y+1638640D01*
X+1442250Y+1684360D01*
X+1442250Y+1730080D01*
X+1474000Y+1684360D02*
X+1569250Y+1684360D01*
X+1521625Y+1714840D02*
X+1521625Y+1653880D01*
X+1943000Y+3710000D02*
X+1816000Y+3710000D01*
X+1308000Y+3646500D02*
X+1816000Y+3646500D01*
X+1816000Y+3773500D01*
X+1308000Y+3773500D01*
X+1308000Y+3646500D01*
X+1308000Y+3710000D02*
X+1181000Y+3710000D01*
X+1435000Y+3514420D02*
X+1435000Y+3605860D01*
X+1514375Y+3605860D01*
X+1530250Y+3590620D01*
X+1530250Y+3575380D01*
X+1514375Y+3560140D01*
X+1435000Y+3560140D01*
X+1514375Y+3560140D02*
X+1530250Y+3544900D01*
X+1530250Y+3514420D01*
X+1593750Y+3575380D02*
X+1625500Y+3605860D01*
X+1625500Y+3514420D01*
X+1768000Y+5974000D02*
X+752000Y+5974000D01*
X+1768000Y+4450000D02*
X+752000Y+4450000D01*
X+752000Y+5974000D02*
X+752000Y+4450000D01*
X+1768000Y+4450000D02*
X+1768000Y+5974000D01*
X+1884840Y+4831000D02*
X+1900080Y+4846875D01*
X+1900080Y+4910375D01*
X+1884840Y+4926250D01*
X+1869600Y+4926250D01*
X+1854360Y+4910375D01*
X+1854360Y+4846875D01*
X+1839120Y+4831000D01*
X+1823880Y+4831000D01*
X+1808640Y+4846875D01*
X+1808640Y+4910375D01*
X+1823880Y+4926250D01*
X+1900080Y+5053250D02*
X+1900080Y+4958000D01*
X+1808640Y+4958000D01*
X+1808640Y+5053250D01*
X+1854360Y+4958000D02*
X+1854360Y+5021500D01*
X+1900080Y+5085000D02*
X+1808640Y+5085000D01*
X+1900080Y+5180250D01*
X+1808640Y+5180250D01*
X+1884840Y+5212000D02*
X+1900080Y+5227875D01*
X+1900080Y+5291375D01*
X+1884840Y+5307250D01*
X+1869600Y+5307250D01*
X+1854360Y+5291375D01*
X+1854360Y+5227875D01*
X+1839120Y+5212000D01*
X+1823880Y+5212000D01*
X+1808640Y+5227875D01*
X+1808640Y+5291375D01*
X+1823880Y+5307250D01*
X+1839120Y+5339000D02*
X+1808640Y+5370750D01*
X+1808640Y+5402500D01*
X+1839120Y+5434250D01*
X+1869600Y+5434250D01*
X+1900080Y+5402500D01*
X+1900080Y+5370750D01*
X+1869600Y+5339000D01*
X+1839120Y+5339000D01*
X+1900080Y+5466000D02*
X+1808640Y+5466000D01*
X+1808640Y+5545375D01*
X+1823880Y+5561250D01*
X+1839120Y+5561250D01*
X+1854360Y+5545375D01*
X+1854360Y+5466000D01*
X+1854360Y+5545375D02*
X+1869600Y+5561250D01*
X+1900080Y+5561250D01*
D14*
X+230000Y+120000D02*
X+6470000Y+120000D01*
X+6470000Y+6800000D01*
X+230000Y+6800000D01*
X+230000Y+120000D01*
D19*
X+1223000Y+2383000D02*
X+1731000Y+2383000D01*
X+1731000Y+2637000D01*
X+1223000Y+2637000D01*
X+1223000Y+2383000D01*
X+1286500Y+2769080D02*
X+1286500Y+2677640D01*
X+1381750Y+2677640D01*
X+1508750Y+2677640D02*
X+1413500Y+2677640D01*
X+1413500Y+2769080D01*
X+1508750Y+2769080D01*
X+1413500Y+2723360D02*
X+1477000Y+2723360D01*
X+1540500Y+2677640D02*
X+1540500Y+2769080D01*
X+1604000Y+2769080D01*
X+1635750Y+2738600D01*
X+1635750Y+2708120D01*
X+1604000Y+2677640D01*
X+1540500Y+2677640D01*
X+5483000Y+4617000D02*
X+5737000Y+4617000D01*
X+5737000Y+5887000D01*
X+5483000Y+5887000D01*
X+5483000Y+4617000D01*
X+6049556Y+4625736D02*
X+6003836Y+4625736D01*
X+6003836Y+4673361D01*
X+6011456Y+4682886D01*
X+6019076Y+4682886D01*
X+6026696Y+4673361D01*
X+6026696Y+4625736D01*
X+6034316Y+4740036D02*
X+6034316Y+4759086D01*
X+6049556Y+4759086D01*
X+6049556Y+4720986D01*
X+6034316Y+4701936D01*
X+6019076Y+4701936D01*
X+6003836Y+4720986D01*
X+6003836Y+4749561D01*
X+6011456Y+4759086D01*
X+6041936Y+4835286D02*
X+6049556Y+4825761D01*
X+6049556Y+4797186D01*
X+6034316Y+4778136D01*
X+6019076Y+4778136D01*
X+6003836Y+4797186D01*
X+6003836Y+4825761D01*
X+6011456Y+4835286D01*
X+6049556Y+4930536D02*
X+6003836Y+4930536D01*
X+6003836Y+4978161D01*
X+6011456Y+4987686D01*
X+6019076Y+4987686D01*
X+6026696Y+4978161D01*
X+6026696Y+4930536D01*
X+6034316Y+5044836D02*
X+6034316Y+5063886D01*
X+6049556Y+5063886D01*
X+6049556Y+5025786D01*
X+6034316Y+5006736D01*
X+6019076Y+5006736D01*
X+6003836Y+5025786D01*
X+6003836Y+5054361D01*
X+6011456Y+5063886D01*
X+6049556Y+5082936D02*
X+6003836Y+5082936D01*
X+6003836Y+5121036D01*
X+6019076Y+5140086D01*
X+6034316Y+5140086D01*
X+6049556Y+5121036D01*
X+6049556Y+5082936D01*
X+6003836Y+5235336D02*
X+6026696Y+5235336D01*
X+6049556Y+5263911D01*
X+6026696Y+5292486D01*
X+6003836Y+5292486D01*
X+6049556Y+5311536D02*
X+6003836Y+5311536D01*
X+6003836Y+5349636D01*
X+6019076Y+5368686D01*
X+6034316Y+5368686D01*
X+6049556Y+5349636D01*
X+6049556Y+5311536D01*
X+6049556Y+5387736D02*
X+6003836Y+5387736D01*
X+6003836Y+5425836D01*
X+6019076Y+5444886D01*
X+6034316Y+5444886D01*
X+6049556Y+5425836D01*
X+6049556Y+5387736D01*
X+6049556Y+5540136D02*
X+6003836Y+5540136D01*
X+6026696Y+5568711D01*
X+6003836Y+5597286D01*
X+6049556Y+5597286D01*
X+6041936Y+5673486D02*
X+6049556Y+5663961D01*
X+6049556Y+5635386D01*
X+6034316Y+5616336D01*
X+6019076Y+5616336D01*
X+6003836Y+5635386D01*
X+6003836Y+5663961D01*
X+6011456Y+5673486D01*
X+6003836Y+5692536D02*
X+6049556Y+5692536D01*
X+6049556Y+5749686D01*
X+6049556Y+5768736D02*
X+6003836Y+5768736D01*
X+6003836Y+5816361D01*
X+6011456Y+5825886D01*
X+6019076Y+5825886D01*
X+6026696Y+5816361D01*
X+6026696Y+5768736D01*
X+6026696Y+5816361D02*
X+6034316Y+5825886D01*
X+6049556Y+5825886D01*
X+5363000Y+3853000D02*
X+5871000Y+3853000D01*
X+5871000Y+4107000D01*
X+5363000Y+4107000D01*
X+5363000Y+3853000D01*
X+5553500Y+4162880D02*
X+5569375Y+4147640D01*
X+5632875Y+4147640D01*
X+5648750Y+4162880D01*
X+5648750Y+4178120D01*
X+5632875Y+4193360D01*
X+5569375Y+4193360D01*
X+5553500Y+4208600D01*
X+5553500Y+4223840D01*
X+5569375Y+4239080D01*
X+5632875Y+4239080D01*
X+5648750Y+4223840D01*
M02*
